<?xml version="1.0" encoding="UTF-8" standalone="no"?>
<!DOCTYPE svg PUBLIC "-//W3C//DTD SVG 1.1//EN" "http://www.w3.org/Graphics/SVG/1.1/DTD/svg11.dtd">
<svg width="100%" height="100%" viewBox="0 0 24 24" version="1.1" xmlns="http://www.w3.org/2000/svg" xmlns:xlink="http://www.w3.org/1999/xlink" xml:space="preserve" xmlns:serif="http://www.serif.com/" style="fill-rule:evenodd;clip-rule:evenodd;stroke-linejoin:round;stroke-miterlimit:2;">
    <path d="M17.471,15.774C16.918,14.818 15.695,14.49 14.739,15.042C12.816,16.152 9.732,17.933 7.81,19.042C6.854,19.595 6.526,20.818 7.078,21.774C7.631,22.731 8.854,23.059 9.81,22.506C11.732,21.397 14.816,19.616 16.739,18.506C17.695,17.954 18.023,16.731 17.471,15.774ZM5.978,18.718C5.792,18.826 5.564,18.826 5.378,18.718C5.192,18.611 5.078,18.413 5.078,18.199C5.078,15.741 5.078,9.774 5.078,9.774C5.079,9.084 5.437,8.412 6.078,8.042C9.29,6.188 16.004,2.312 17.77,1.292C17.884,1.226 18.021,1.208 18.149,1.242C18.277,1.277 18.386,1.36 18.453,1.475C19.419,3.149 18.846,5.29 17.172,6.256L9.077,10.93C8.792,11.095 8.694,11.46 8.859,11.746C9.024,12.032 9.39,12.13 9.676,11.965C9.676,11.965 17.77,7.292 17.77,7.292C17.884,7.225 18.021,7.207 18.149,7.242C18.277,7.276 18.386,7.36 18.453,7.475C19.419,9.149 18.846,11.289 17.172,12.256C14.408,13.851 8.282,17.388 5.978,18.718Z" style="fill:rgb(69,245,169);"/>
</svg>
